<svg xmlns="http://www.w3.org/2000/svg" viewBox="0 0 512 512">
  <defs>
    <linearGradient id="bg" x1="0%" y1="0%" x2="100%" y2="100%">
      <stop offset="0%" style="stop-color:#667eea"/>
      <stop offset="100%" style="stop-color:#764ba2"/>
    </linearGradient>
  </defs>
  <rect width="512" height="512" rx="90" fill="url(#bg)"/>
  <g fill="white">
    <!-- Document icon -->
    <path d="M160 80h128l80 80v272c0 17.7-14.3 32-32 32H160c-17.7 0-32-14.3-32-32V112c0-17.7 14.3-32 32-32z" opacity="0.9"/>
    <path d="M288 80v80h80" fill="none" stroke="white" stroke-width="16" stroke-linecap="round"/>
    <!-- Code lines -->
    <rect x="176" y="200" width="160" height="12" rx="6" fill="#667eea"/>
    <rect x="176" y="232" width="120" height="12" rx="6" fill="#667eea"/>
    <rect x="176" y="264" width="140" height="12" rx="6" fill="#667eea"/>
    <rect x="176" y="296" width="100" height="12" rx="6" fill="#667eea"/>
    <rect x="176" y="328" width="130" height="12" rx="6" fill="#667eea"/>
    <!-- Pencil -->
    <g transform="translate(300, 280) rotate(45)">
      <rect x="0" y="0" width="24" height="120" rx="4" fill="#ffd700"/>
      <polygon points="12,120 0,140 24,140" fill="#ffd700"/>
      <rect x="0" y="0" width="24" height="20" fill="#ff6b6b"/>
    </g>
  </g>
</svg>
